<?xml version="1.0" encoding="UTF-8" standalone="yes"?>
<svg fill="none" stroke-linecap="square" stroke-miterlimit="10" version="1.1" viewBox="0.0 0.0 313.09186351706035 450.98950131233596" xmlns="http://www.w3.org/2000/svg">
 <clipPath id="a">
  <path d="m0 0h313.09v450.99h-313.09v-450.99z"/>
 </clipPath>
 <g clip-path="url(#a)">
  <path d="m0 0h313.09v450.99h-313.09z" fill="#000" fill-opacity="0"/>
  <path d="m0 185.56c-4.6347e-14 -29.444 70.088-53.313 156.55-53.313s156.55 23.869 156.55 53.313v213.25c0 29.444-70.088 53.313-156.55 53.313s-156.55-23.869-156.55-53.313z" fill="#6aa84f"/>
  <path d="m313.09 185.56c0 29.444-70.088 53.313-156.55 53.313s-156.55-23.869-156.55-53.313" fill="#000" fill-opacity="0"/>
  <path d="m0 185.56c-4.6347e-14 -29.444 70.088-53.313 156.55-53.313s156.55 23.869 156.55 53.313v213.25c0 29.444-70.088 53.313-156.55 53.313s-156.55-23.869-156.55-53.313z" fill="#000" fill-opacity="0"/>
  <path d="m0 94.036c-4.6347e-14 -13.856 70.088-25.088 156.55-25.088s156.55 11.232 156.55 25.088v100.35c0 13.856-70.088 25.088-156.55 25.088s-156.55-11.232-156.55-25.088z" fill="#ccc"/>
  <path d="m313.09 94.036c0 13.856-70.088 25.088-156.55 25.088s-156.55-11.232-156.55-25.088" fill="#000" fill-opacity="0"/>
  <path d="m0 94.036c-4.6347e-14 -13.856 70.088-25.088 156.55-25.088s156.55 11.232 156.55 25.088v100.35c0 13.856-70.088 25.088-156.55 25.088s-156.55-11.232-156.55-25.088z" fill="#000" fill-opacity="0"/>
  <path d="m129.87 182.29l-5.7804 73.688 16.853 0.47096-18.264 69.383 17.539 1.9354-12.343 107.62 57.308-104.9-20.813-1.078 35.031-66.408-25.372-3.552 37.118-69.838z" fill="#fff"/>
  <path d="m66.688 34.48h153.71v103.44h-153.71z" fill="#ccc"/>
  <path d="m220.4 34.48l34.48-34.48v103.44l-34.48 34.48z" fill="#a3a3a3"/>
  <path d="m66.688 34.48l34.48-34.48h153.71l-34.48 34.48z" fill="#d6d6d6"/>
  <path d="m66.688 34.48l34.48-34.48h153.71v103.44l-34.48 34.48h-153.71zh153.71l34.48-34.48m-34.48 34.48v103.44" fill="#000" fill-opacity="0"/>
 </g>
</svg>
